{"title":"OSU_VS_Northwestern_First_Half_480p_20110311_TTL","uid":6236299,"size":711538612,"categoryP":"video","categoryS":"tv_shows","magnet":"?xt=urn:btih:9127e9b16ba3183045762d40b0dd2a63f9bf3e51&amp;dn=OSU_VS_Northwestern_First_Half_480p_20110311_TTL&amp;tr=udp%3A%2F%2Ftracker.openbittorrent.com%3A80&amp;tr=udp%3A%2F%2Fopen.demonii.com%3A1337&amp;tr=udp%3A%2F%2Ftracker.coppersurfer.tk%3A6969&amp;tr=udp%3A%2F%2Fexodus.desync.com%3A6969","seeders":0,"leechers":1,"uploader":"thetorrentlord","files":2,"time":1299883722,"description":" This is from a SD broadcast.  Enjoy and please share.\t\t\t\t\t\t\t\n\n\t\t\t\t\t\t\t\t\t\t\t\t\t\n\n\t\t\t\t\t\t\t\t\t\t\t\t\t\n\n\t\t\t\t\t\t\t\t\t\t\t\t\t\n\n\t\t\t\t\t\t\t\t\t\t\t\t\t\n\n******************************************************************************************************\n\n******************************************************************************************************\t\n\n\t\t\t\t\t\t\t\t\t\t\t\t\t\n\n\t\t\t\t\t\t\t\t\t\t\t\t\t\n\n\t\t\t\t\t\t\t\t\t\t\t\t\t\n\n\t\t\t\t\t\t\t\nOSU_VS_Northwestern_First_Half_480p_20110311_TTL.avi\nFormat                           : AVI\nFormat/Info                      : Audio Video Interleave\nFile size                        : 679 MiB\nDuration                         : 1h 3mn\nOverall bit rate                 : 1 503 Kbps\nMovie name                       : OSU_VS_Northwestern_First_Half_480p_20110311_TTL.mpg\nDirector                         : created.with.SUPER(C).v2010.bld.37\nWriting application              : SUPER(C)   \n\nVideo\nID                               : 0\nFormat                           : MPEG-4 Visual\nFormat profile                   : Simple@L3\nFormat settings, BVOP            : No\nFormat settings, QPel            : No\nFormat settings, GMC             : No warppoints\nFormat settings, Matrix          : Default (H.263)\nCodec ID                         : XVID\nCodec ID/Hint                    : XviD\nDuration                         : 31mn 33s\nBit rate                         : 2 881 Kbps\nWidth                            : 624 pixels\nHeight                           : 352 pixels\nDisplay aspect ratio             : 16:9\nFrame rate                       : 29.970 fps\nColor space                      : YUV\nChroma subsampling               : 4:2:0\nBit depth                        : 8 bits\nScan type                        : Progressive\nBits/(Pixel*Frame)               : 0.438\nStream size                      : 650 MiB (96%)\nWriting library                  : XviD 1.1.2 (UTC 2006-11-01)\n\nAudio\nID                               : 1\nFormat                           : MPEG Audio\nFormat version                   : Version 2\nFormat profile                   : Layer 3\nMode                             : Joint stereo\nMode extension                   : MS Stereo\nCodec ID                         : 55\nCodec ID/Hint                    : MP3\nDuration                         : 1h 3mn\nBit rate mode                    : Constant\nBit rate                         : 112 Kbps\nChannel(s)                       : 2 channels\nSampling rate                    : 22.05 KHz\nStream size                      : 25.3 MiB (4%)\nAlignment                        : Aligned on interleaves\nInterleave, duration             : 26 ms (0.78 video frame)\nInterleave, preload duration     : 26 ms\nWriting library                  : LAME3.98\n\n","torrent":{"xt":"urn:btih:9127e9b16ba3183045762d40b0dd2a63f9bf3e51","amp;dn":"OSU_VS_Northwestern_First_Half_480p_20110311_TTL","amp;tr":["udp%3A%2F%2Ftracker.openbittorrent.com%3A80","udp%3A%2F%2Fopen.demonii.com%3A1337","udp%3A%2F%2Ftracker.coppersurfer.tk%3A6969","udp%3A%2F%2Fexodus.desync.com%3A6969"],"infoHash":"9127e9b16ba3183045762d40b0dd2a63f9bf3e51","infoHashBuffer":{"type":"Buffer","data":[145,39,233,177,107,163,24,48,69,118,45,64,176,221,42,99,249,191,62,81]},"announce":[],"urlList":[]}}